<mxfile host="app.diagrams.net" agent="Mozilla/5.0 (Macintosh; Intel Mac OS X 10_15_7) AppleWebKit/537.36 (KHTML, like Gecko) Chrome/140.0.0.0 Safari/537.36" version="28.2.0">
  <diagram name="Page-1" id="DKarmOcI-OD9hi8qAxZ0">
    <mxGraphModel dx="976" dy="565" grid="1" gridSize="10" guides="1" tooltips="1" connect="1" arrows="1" fold="1" page="1" pageScale="1" pageWidth="850" pageHeight="1100" math="0" shadow="0">
      <root>
        <mxCell id="0" />
        <mxCell id="1" parent="0" />
        <mxCell id="qiO_hPwuFdxvZxoSVy8A-5" style="edgeStyle=orthogonalEdgeStyle;rounded=0;orthogonalLoop=1;jettySize=auto;html=1;exitX=1;exitY=0.5;exitDx=0;exitDy=0;" parent="1" source="QY3fSjqpYz8GA3IVz9RK-1" target="qiO_hPwuFdxvZxoSVy8A-3" edge="1">
          <mxGeometry relative="1" as="geometry" />
        </mxCell>
        <mxCell id="QY3fSjqpYz8GA3IVz9RK-1" value="Video" style="rounded=1;whiteSpace=wrap;html=1;" parent="1" vertex="1">
          <mxGeometry x="80" y="120" width="80" height="40" as="geometry" />
        </mxCell>
        <mxCell id="qiO_hPwuFdxvZxoSVy8A-6" style="edgeStyle=orthogonalEdgeStyle;rounded=0;orthogonalLoop=1;jettySize=auto;html=1;exitX=1;exitY=0.5;exitDx=0;exitDy=0;entryX=0;entryY=0.5;entryDx=0;entryDy=0;" parent="1" source="qiO_hPwuFdxvZxoSVy8A-1" target="qiO_hPwuFdxvZxoSVy8A-4" edge="1">
          <mxGeometry relative="1" as="geometry" />
        </mxCell>
        <mxCell id="qiO_hPwuFdxvZxoSVy8A-1" value="Text query" style="rounded=1;whiteSpace=wrap;html=1;" parent="1" vertex="1">
          <mxGeometry x="80" y="200" width="80" height="40" as="geometry" />
        </mxCell>
        <mxCell id="qiO_hPwuFdxvZxoSVy8A-2" value="" style="swimlane;startSize=0;" parent="1" vertex="1">
          <mxGeometry x="200" y="80" width="160" height="200" as="geometry" />
        </mxCell>
        <mxCell id="qiO_hPwuFdxvZxoSVy8A-3" value="Video encoder" style="rounded=1;whiteSpace=wrap;html=1;" parent="qiO_hPwuFdxvZxoSVy8A-2" vertex="1">
          <mxGeometry x="40" y="40" width="80" height="40" as="geometry" />
        </mxCell>
        <mxCell id="qiO_hPwuFdxvZxoSVy8A-4" value="Text encoder" style="rounded=1;whiteSpace=wrap;html=1;" parent="qiO_hPwuFdxvZxoSVy8A-2" vertex="1">
          <mxGeometry x="40" y="120" width="80" height="40" as="geometry" />
        </mxCell>
        <mxCell id="qiO_hPwuFdxvZxoSVy8A-7" value="ML model" style="text;html=1;strokeColor=none;fillColor=none;align=center;verticalAlign=middle;whiteSpace=wrap;rounded=0;" parent="qiO_hPwuFdxvZxoSVy8A-2" vertex="1">
          <mxGeometry x="100" width="60" height="30" as="geometry" />
        </mxCell>
        <mxCell id="qiO_hPwuFdxvZxoSVy8A-8" value="Video embedding" style="rounded=1;whiteSpace=wrap;html=1;" parent="1" vertex="1">
          <mxGeometry x="400" y="120" width="80" height="40" as="geometry" />
        </mxCell>
        <mxCell id="qiO_hPwuFdxvZxoSVy8A-9" value="Text embedding" style="rounded=1;whiteSpace=wrap;html=1;" parent="1" vertex="1">
          <mxGeometry x="400" y="200" width="80" height="40" as="geometry" />
        </mxCell>
        <mxCell id="qiO_hPwuFdxvZxoSVy8A-10" style="edgeStyle=orthogonalEdgeStyle;rounded=0;orthogonalLoop=1;jettySize=auto;html=1;exitX=1;exitY=0.5;exitDx=0;exitDy=0;" parent="1" source="qiO_hPwuFdxvZxoSVy8A-3" target="qiO_hPwuFdxvZxoSVy8A-8" edge="1">
          <mxGeometry relative="1" as="geometry" />
        </mxCell>
        <mxCell id="qiO_hPwuFdxvZxoSVy8A-11" style="edgeStyle=orthogonalEdgeStyle;rounded=0;orthogonalLoop=1;jettySize=auto;html=1;exitX=1;exitY=0.5;exitDx=0;exitDy=0;entryX=0;entryY=0.5;entryDx=0;entryDy=0;" parent="1" source="qiO_hPwuFdxvZxoSVy8A-4" target="qiO_hPwuFdxvZxoSVy8A-9" edge="1">
          <mxGeometry relative="1" as="geometry" />
        </mxCell>
      </root>
    </mxGraphModel>
  </diagram>
</mxfile>
